<svg xmlns="http://www.w3.org/2000/svg" viewBox="0 0 512 512">
<circle cx="256" cy="256" r="256" fill="#5a489b"/>
<rect x="72.11" y="128" width="14.93" height="38" fill="#cfd6e0" rx="3"/>
<rect x="72.11" y="346" width="14.93" height="38" fill="#cfd6e0" rx="3"/>
<rect x="99.25" y="128" width="14.93" height="38" fill="#cfd6e0" rx="3"/>
<rect x="99.25" y="346" width="14.93" height="38" fill="#cfd6e0" rx="3"/>
<rect x="126.39" y="128" width="14.93" height="38" fill="#cfd6e0" rx="3"/>
<rect x="126.39" y="346" width="14.93" height="38" fill="#cfd6e0" rx="3"/>
<rect x="153.54" y="128" width="14.93" height="38" fill="#cfd6e0" rx="3"/>
<rect x="153.54" y="346" width="14.93" height="38" fill="#cfd6e0" rx="3"/>
<rect x="180.68" y="128" width="14.93" height="38" fill="#cfd6e0" rx="3"/>
<rect x="180.68" y="346" width="14.93" height="38" fill="#cfd6e0" rx="3"/>
<rect x="207.82" y="128" width="14.93" height="38" fill="#cfd6e0" rx="3"/>
<rect x="207.82" y="346" width="14.93" height="38" fill="#cfd6e0" rx="3"/>
<rect x="234.96" y="128" width="14.93" height="38" fill="#cfd6e0" rx="3"/>
<rect x="234.96" y="346" width="14.93" height="38" fill="#cfd6e0" rx="3"/>
<rect x="262.11" y="128" width="14.93" height="38" fill="#cfd6e0" rx="3"/>
<rect x="262.11" y="346" width="14.93" height="38" fill="#cfd6e0" rx="3"/>
<rect x="289.25" y="128" width="14.93" height="38" fill="#cfd6e0" rx="3"/>
<rect x="289.25" y="346" width="14.93" height="38" fill="#cfd6e0" rx="3"/>
<rect x="316.39" y="128" width="14.93" height="38" fill="#cfd6e0" rx="3"/>
<rect x="316.39" y="346" width="14.93" height="38" fill="#cfd6e0" rx="3"/>
<rect x="343.54" y="128" width="14.93" height="38" fill="#cfd6e0" rx="3"/>
<rect x="343.54" y="346" width="14.93" height="38" fill="#cfd6e0" rx="3"/>
<rect x="370.68" y="128" width="14.93" height="38" fill="#cfd6e0" rx="3"/>
<rect x="370.68" y="346" width="14.93" height="38" fill="#cfd6e0" rx="3"/>
<rect x="397.82" y="128" width="14.93" height="38" fill="#cfd6e0" rx="3"/>
<rect x="397.82" y="346" width="14.93" height="38" fill="#cfd6e0" rx="3"/>
<rect x="424.96" y="128" width="14.93" height="38" fill="#cfd6e0" rx="3"/>
<rect x="424.96" y="346" width="14.93" height="38" fill="#cfd6e0" rx="3"/>
<rect x="66" y="166" width="380" height="180" rx="16" fill="#0e1115"/>
<circle cx="94" cy="194" r="9" fill="#cfd2d8"/>
<rect x="80" y="180" width="352" height="3" fill="#000" fill-opacity="0.45"/>
<text x="256" y="242" font-family="Arial Black, Segoe UI Bold, DejaVu Sans Bold, sans-serif" font-weight="900" font-size="50" fill="white" text-anchor="middle" dominant-baseline="central">MOS 6581</text>
<text x="256" y="294" font-family="Arial Black, Segoe UI Bold, DejaVu Sans Bold, sans-serif" font-weight="700" font-size="36" fill="#cbd3df" text-anchor="middle" dominant-baseline="central">SID</text>
</svg>
