<svg xmlns="http://www.w3.org/2000/svg" viewBox="0 0 512 512">
<circle cx="256" cy="256" r="256" fill="#d2821e"/>
<rect x="60.50" y="133" width="11.00" height="38" fill="#cfd6e0" rx="3"/>
<rect x="60.50" y="341" width="11.00" height="38" fill="#cfd6e0" rx="3"/>
<rect x="80.50" y="133" width="11.00" height="38" fill="#cfd6e0" rx="3"/>
<rect x="80.50" y="341" width="11.00" height="38" fill="#cfd6e0" rx="3"/>
<rect x="100.50" y="133" width="11.00" height="38" fill="#cfd6e0" rx="3"/>
<rect x="100.50" y="341" width="11.00" height="38" fill="#cfd6e0" rx="3"/>
<rect x="120.50" y="133" width="11.00" height="38" fill="#cfd6e0" rx="3"/>
<rect x="120.50" y="341" width="11.00" height="38" fill="#cfd6e0" rx="3"/>
<rect x="140.50" y="133" width="11.00" height="38" fill="#cfd6e0" rx="3"/>
<rect x="140.50" y="341" width="11.00" height="38" fill="#cfd6e0" rx="3"/>
<rect x="160.50" y="133" width="11.00" height="38" fill="#cfd6e0" rx="3"/>
<rect x="160.50" y="341" width="11.00" height="38" fill="#cfd6e0" rx="3"/>
<rect x="180.50" y="133" width="11.00" height="38" fill="#cfd6e0" rx="3"/>
<rect x="180.50" y="341" width="11.00" height="38" fill="#cfd6e0" rx="3"/>
<rect x="200.50" y="133" width="11.00" height="38" fill="#cfd6e0" rx="3"/>
<rect x="200.50" y="341" width="11.00" height="38" fill="#cfd6e0" rx="3"/>
<rect x="220.50" y="133" width="11.00" height="38" fill="#cfd6e0" rx="3"/>
<rect x="220.50" y="341" width="11.00" height="38" fill="#cfd6e0" rx="3"/>
<rect x="240.50" y="133" width="11.00" height="38" fill="#cfd6e0" rx="3"/>
<rect x="240.50" y="341" width="11.00" height="38" fill="#cfd6e0" rx="3"/>
<rect x="260.50" y="133" width="11.00" height="38" fill="#cfd6e0" rx="3"/>
<rect x="260.50" y="341" width="11.00" height="38" fill="#cfd6e0" rx="3"/>
<rect x="280.50" y="133" width="11.00" height="38" fill="#cfd6e0" rx="3"/>
<rect x="280.50" y="341" width="11.00" height="38" fill="#cfd6e0" rx="3"/>
<rect x="300.50" y="133" width="11.00" height="38" fill="#cfd6e0" rx="3"/>
<rect x="300.50" y="341" width="11.00" height="38" fill="#cfd6e0" rx="3"/>
<rect x="320.50" y="133" width="11.00" height="38" fill="#cfd6e0" rx="3"/>
<rect x="320.50" y="341" width="11.00" height="38" fill="#cfd6e0" rx="3"/>
<rect x="340.50" y="133" width="11.00" height="38" fill="#cfd6e0" rx="3"/>
<rect x="340.50" y="341" width="11.00" height="38" fill="#cfd6e0" rx="3"/>
<rect x="360.50" y="133" width="11.00" height="38" fill="#cfd6e0" rx="3"/>
<rect x="360.50" y="341" width="11.00" height="38" fill="#cfd6e0" rx="3"/>
<rect x="380.50" y="133" width="11.00" height="38" fill="#cfd6e0" rx="3"/>
<rect x="380.50" y="341" width="11.00" height="38" fill="#cfd6e0" rx="3"/>
<rect x="400.50" y="133" width="11.00" height="38" fill="#cfd6e0" rx="3"/>
<rect x="400.50" y="341" width="11.00" height="38" fill="#cfd6e0" rx="3"/>
<rect x="420.50" y="133" width="11.00" height="38" fill="#cfd6e0" rx="3"/>
<rect x="420.50" y="341" width="11.00" height="38" fill="#cfd6e0" rx="3"/>
<rect x="440.50" y="133" width="11.00" height="38" fill="#cfd6e0" rx="3"/>
<rect x="440.50" y="341" width="11.00" height="38" fill="#cfd6e0" rx="3"/>
<rect x="56" y="171" width="400" height="170" rx="16" fill="#0e1115"/>
<circle cx="84" cy="199" r="9" fill="#cfd2d8"/>
<rect x="70" y="185" width="372" height="3" fill="#000" fill-opacity="0.45"/>
<text x="256" y="266" font-family="Arial Black, Segoe UI Bold, DejaVu Sans Bold, sans-serif" font-weight="900" font-size="42" fill="white" text-anchor="middle" dominant-baseline="central">AY-3-8910</text>
</svg>
