<svg xmlns="http://www.w3.org/2000/svg" viewBox="0 0 512 512">
<circle cx="256" cy="256" r="256" fill="#6e6e6e"/>
<rect x="120.81" y="90" width="7.88" height="26" fill="#cfd6e0" rx="2"/>
<rect x="120.81" y="396" width="7.88" height="26" fill="#cfd6e0" rx="2"/>
<rect x="90" y="120.81" width="26" height="7.88" fill="#cfd6e0" rx="2"/>
<rect x="396" y="120.81" width="26" height="7.88" fill="#cfd6e0" rx="2"/>
<rect x="138.31" y="90" width="7.88" height="26" fill="#cfd6e0" rx="2"/>
<rect x="138.31" y="396" width="7.88" height="26" fill="#cfd6e0" rx="2"/>
<rect x="90" y="138.31" width="26" height="7.88" fill="#cfd6e0" rx="2"/>
<rect x="396" y="138.31" width="26" height="7.88" fill="#cfd6e0" rx="2"/>
<rect x="155.81" y="90" width="7.88" height="26" fill="#cfd6e0" rx="2"/>
<rect x="155.81" y="396" width="7.88" height="26" fill="#cfd6e0" rx="2"/>
<rect x="90" y="155.81" width="26" height="7.88" fill="#cfd6e0" rx="2"/>
<rect x="396" y="155.81" width="26" height="7.88" fill="#cfd6e0" rx="2"/>
<rect x="173.31" y="90" width="7.88" height="26" fill="#cfd6e0" rx="2"/>
<rect x="173.31" y="396" width="7.88" height="26" fill="#cfd6e0" rx="2"/>
<rect x="90" y="173.31" width="26" height="7.88" fill="#cfd6e0" rx="2"/>
<rect x="396" y="173.31" width="26" height="7.88" fill="#cfd6e0" rx="2"/>
<rect x="190.81" y="90" width="7.88" height="26" fill="#cfd6e0" rx="2"/>
<rect x="190.81" y="396" width="7.88" height="26" fill="#cfd6e0" rx="2"/>
<rect x="90" y="190.81" width="26" height="7.88" fill="#cfd6e0" rx="2"/>
<rect x="396" y="190.81" width="26" height="7.88" fill="#cfd6e0" rx="2"/>
<rect x="208.31" y="90" width="7.88" height="26" fill="#cfd6e0" rx="2"/>
<rect x="208.31" y="396" width="7.88" height="26" fill="#cfd6e0" rx="2"/>
<rect x="90" y="208.31" width="26" height="7.88" fill="#cfd6e0" rx="2"/>
<rect x="396" y="208.31" width="26" height="7.88" fill="#cfd6e0" rx="2"/>
<rect x="225.81" y="90" width="7.88" height="26" fill="#cfd6e0" rx="2"/>
<rect x="225.81" y="396" width="7.88" height="26" fill="#cfd6e0" rx="2"/>
<rect x="90" y="225.81" width="26" height="7.88" fill="#cfd6e0" rx="2"/>
<rect x="396" y="225.81" width="26" height="7.88" fill="#cfd6e0" rx="2"/>
<rect x="243.31" y="90" width="7.88" height="26" fill="#cfd6e0" rx="2"/>
<rect x="243.31" y="396" width="7.88" height="26" fill="#cfd6e0" rx="2"/>
<rect x="90" y="243.31" width="26" height="7.88" fill="#cfd6e0" rx="2"/>
<rect x="396" y="243.31" width="26" height="7.88" fill="#cfd6e0" rx="2"/>
<rect x="260.81" y="90" width="7.88" height="26" fill="#cfd6e0" rx="2"/>
<rect x="260.81" y="396" width="7.88" height="26" fill="#cfd6e0" rx="2"/>
<rect x="90" y="260.81" width="26" height="7.88" fill="#cfd6e0" rx="2"/>
<rect x="396" y="260.81" width="26" height="7.88" fill="#cfd6e0" rx="2"/>
<rect x="278.31" y="90" width="7.88" height="26" fill="#cfd6e0" rx="2"/>
<rect x="278.31" y="396" width="7.88" height="26" fill="#cfd6e0" rx="2"/>
<rect x="90" y="278.31" width="26" height="7.88" fill="#cfd6e0" rx="2"/>
<rect x="396" y="278.31" width="26" height="7.88" fill="#cfd6e0" rx="2"/>
<rect x="295.81" y="90" width="7.88" height="26" fill="#cfd6e0" rx="2"/>
<rect x="295.81" y="396" width="7.88" height="26" fill="#cfd6e0" rx="2"/>
<rect x="90" y="295.81" width="26" height="7.88" fill="#cfd6e0" rx="2"/>
<rect x="396" y="295.81" width="26" height="7.88" fill="#cfd6e0" rx="2"/>
<rect x="313.31" y="90" width="7.88" height="26" fill="#cfd6e0" rx="2"/>
<rect x="313.31" y="396" width="7.88" height="26" fill="#cfd6e0" rx="2"/>
<rect x="90" y="313.31" width="26" height="7.88" fill="#cfd6e0" rx="2"/>
<rect x="396" y="313.31" width="26" height="7.88" fill="#cfd6e0" rx="2"/>
<rect x="330.81" y="90" width="7.88" height="26" fill="#cfd6e0" rx="2"/>
<rect x="330.81" y="396" width="7.88" height="26" fill="#cfd6e0" rx="2"/>
<rect x="90" y="330.81" width="26" height="7.88" fill="#cfd6e0" rx="2"/>
<rect x="396" y="330.81" width="26" height="7.88" fill="#cfd6e0" rx="2"/>
<rect x="348.31" y="90" width="7.88" height="26" fill="#cfd6e0" rx="2"/>
<rect x="348.31" y="396" width="7.88" height="26" fill="#cfd6e0" rx="2"/>
<rect x="90" y="348.31" width="26" height="7.88" fill="#cfd6e0" rx="2"/>
<rect x="396" y="348.31" width="26" height="7.88" fill="#cfd6e0" rx="2"/>
<rect x="365.81" y="90" width="7.88" height="26" fill="#cfd6e0" rx="2"/>
<rect x="365.81" y="396" width="7.88" height="26" fill="#cfd6e0" rx="2"/>
<rect x="90" y="365.81" width="26" height="7.88" fill="#cfd6e0" rx="2"/>
<rect x="396" y="365.81" width="26" height="7.88" fill="#cfd6e0" rx="2"/>
<rect x="383.31" y="90" width="7.88" height="26" fill="#cfd6e0" rx="2"/>
<rect x="383.31" y="396" width="7.88" height="26" fill="#cfd6e0" rx="2"/>
<rect x="90" y="383.31" width="26" height="7.88" fill="#cfd6e0" rx="2"/>
<rect x="396" y="383.31" width="26" height="7.88" fill="#cfd6e0" rx="2"/>
<rect x="116" y="116" width="280" height="280" rx="12" fill="#0e1115"/>
<circle cx="146" cy="146" r="10" fill="#cfd2d8"/>
<text x="256" y="234" font-family="Arial Black, Segoe UI Bold, DejaVu Sans Bold, sans-serif" font-weight="900" font-size="52" fill="white" text-anchor="middle" dominant-baseline="central">YM2608</text>
<text x="256" y="292" font-family="Arial Black, Segoe UI Bold, DejaVu Sans Bold, sans-serif" font-weight="700" font-size="28" fill="#cbd3df" text-anchor="middle" dominant-baseline="central">OPNA</text>
</svg>
