<svg xmlns="http://www.w3.org/2000/svg" viewBox="0 0 512 512">
<circle cx="256" cy="256" r="256" fill="#d75a23"/>
<rect x="59.75" y="128" width="9.17" height="38" fill="#cfd6e0" rx="3"/>
<rect x="59.75" y="346" width="9.17" height="38" fill="#cfd6e0" rx="3"/>
<rect x="76.42" y="128" width="9.17" height="38" fill="#cfd6e0" rx="3"/>
<rect x="76.42" y="346" width="9.17" height="38" fill="#cfd6e0" rx="3"/>
<rect x="93.08" y="128" width="9.17" height="38" fill="#cfd6e0" rx="3"/>
<rect x="93.08" y="346" width="9.17" height="38" fill="#cfd6e0" rx="3"/>
<rect x="109.75" y="128" width="9.17" height="38" fill="#cfd6e0" rx="3"/>
<rect x="109.75" y="346" width="9.17" height="38" fill="#cfd6e0" rx="3"/>
<rect x="126.42" y="128" width="9.17" height="38" fill="#cfd6e0" rx="3"/>
<rect x="126.42" y="346" width="9.17" height="38" fill="#cfd6e0" rx="3"/>
<rect x="143.08" y="128" width="9.17" height="38" fill="#cfd6e0" rx="3"/>
<rect x="143.08" y="346" width="9.17" height="38" fill="#cfd6e0" rx="3"/>
<rect x="159.75" y="128" width="9.17" height="38" fill="#cfd6e0" rx="3"/>
<rect x="159.75" y="346" width="9.17" height="38" fill="#cfd6e0" rx="3"/>
<rect x="176.42" y="128" width="9.17" height="38" fill="#cfd6e0" rx="3"/>
<rect x="176.42" y="346" width="9.17" height="38" fill="#cfd6e0" rx="3"/>
<rect x="193.08" y="128" width="9.17" height="38" fill="#cfd6e0" rx="3"/>
<rect x="193.08" y="346" width="9.17" height="38" fill="#cfd6e0" rx="3"/>
<rect x="209.75" y="128" width="9.17" height="38" fill="#cfd6e0" rx="3"/>
<rect x="209.75" y="346" width="9.17" height="38" fill="#cfd6e0" rx="3"/>
<rect x="226.42" y="128" width="9.17" height="38" fill="#cfd6e0" rx="3"/>
<rect x="226.42" y="346" width="9.17" height="38" fill="#cfd6e0" rx="3"/>
<rect x="243.08" y="128" width="9.17" height="38" fill="#cfd6e0" rx="3"/>
<rect x="243.08" y="346" width="9.17" height="38" fill="#cfd6e0" rx="3"/>
<rect x="259.75" y="128" width="9.17" height="38" fill="#cfd6e0" rx="3"/>
<rect x="259.75" y="346" width="9.17" height="38" fill="#cfd6e0" rx="3"/>
<rect x="276.42" y="128" width="9.17" height="38" fill="#cfd6e0" rx="3"/>
<rect x="276.42" y="346" width="9.17" height="38" fill="#cfd6e0" rx="3"/>
<rect x="293.08" y="128" width="9.17" height="38" fill="#cfd6e0" rx="3"/>
<rect x="293.08" y="346" width="9.17" height="38" fill="#cfd6e0" rx="3"/>
<rect x="309.75" y="128" width="9.17" height="38" fill="#cfd6e0" rx="3"/>
<rect x="309.75" y="346" width="9.17" height="38" fill="#cfd6e0" rx="3"/>
<rect x="326.42" y="128" width="9.17" height="38" fill="#cfd6e0" rx="3"/>
<rect x="326.42" y="346" width="9.17" height="38" fill="#cfd6e0" rx="3"/>
<rect x="343.08" y="128" width="9.17" height="38" fill="#cfd6e0" rx="3"/>
<rect x="343.08" y="346" width="9.17" height="38" fill="#cfd6e0" rx="3"/>
<rect x="359.75" y="128" width="9.17" height="38" fill="#cfd6e0" rx="3"/>
<rect x="359.75" y="346" width="9.17" height="38" fill="#cfd6e0" rx="3"/>
<rect x="376.42" y="128" width="9.17" height="38" fill="#cfd6e0" rx="3"/>
<rect x="376.42" y="346" width="9.17" height="38" fill="#cfd6e0" rx="3"/>
<rect x="393.08" y="128" width="9.17" height="38" fill="#cfd6e0" rx="3"/>
<rect x="393.08" y="346" width="9.17" height="38" fill="#cfd6e0" rx="3"/>
<rect x="409.75" y="128" width="9.17" height="38" fill="#cfd6e0" rx="3"/>
<rect x="409.75" y="346" width="9.17" height="38" fill="#cfd6e0" rx="3"/>
<rect x="426.42" y="128" width="9.17" height="38" fill="#cfd6e0" rx="3"/>
<rect x="426.42" y="346" width="9.17" height="38" fill="#cfd6e0" rx="3"/>
<rect x="443.08" y="128" width="9.17" height="38" fill="#cfd6e0" rx="3"/>
<rect x="443.08" y="346" width="9.17" height="38" fill="#cfd6e0" rx="3"/>
<rect x="56" y="166" width="400" height="180" rx="16" fill="#0e1115"/>
<circle cx="84" cy="194" r="9" fill="#cfd2d8"/>
<rect x="70" y="180" width="372" height="3" fill="#000" fill-opacity="0.45"/>
<text x="256" y="242" font-family="Arial Black, Segoe UI Bold, DejaVu Sans Bold, sans-serif" font-weight="900" font-size="66" fill="white" text-anchor="middle" dominant-baseline="central">PAULA</text>
<text x="256" y="294" font-family="Arial Black, Segoe UI Bold, DejaVu Sans Bold, sans-serif" font-weight="700" font-size="36" fill="#cbd3df" text-anchor="middle" dominant-baseline="central">Amiga 8364</text>
</svg>
