<svg xmlns="http://www.w3.org/2000/svg" viewBox="0 0 512 512">
<circle cx="256" cy="256" r="256" fill="#202078"/>
<rect x="119.08" y="90" width="5.04" height="26" fill="#cfd6e0" rx="2"/>
<rect x="119.08" y="396" width="5.04" height="26" fill="#cfd6e0" rx="2"/>
<rect x="90" y="119.08" width="26" height="5.04" fill="#cfd6e0" rx="2"/>
<rect x="396" y="119.08" width="26" height="5.04" fill="#cfd6e0" rx="2"/>
<rect x="130.28" y="90" width="5.04" height="26" fill="#cfd6e0" rx="2"/>
<rect x="130.28" y="396" width="5.04" height="26" fill="#cfd6e0" rx="2"/>
<rect x="90" y="130.28" width="26" height="5.04" fill="#cfd6e0" rx="2"/>
<rect x="396" y="130.28" width="26" height="5.04" fill="#cfd6e0" rx="2"/>
<rect x="141.48" y="90" width="5.04" height="26" fill="#cfd6e0" rx="2"/>
<rect x="141.48" y="396" width="5.04" height="26" fill="#cfd6e0" rx="2"/>
<rect x="90" y="141.48" width="26" height="5.04" fill="#cfd6e0" rx="2"/>
<rect x="396" y="141.48" width="26" height="5.04" fill="#cfd6e0" rx="2"/>
<rect x="152.68" y="90" width="5.04" height="26" fill="#cfd6e0" rx="2"/>
<rect x="152.68" y="396" width="5.04" height="26" fill="#cfd6e0" rx="2"/>
<rect x="90" y="152.68" width="26" height="5.04" fill="#cfd6e0" rx="2"/>
<rect x="396" y="152.68" width="26" height="5.04" fill="#cfd6e0" rx="2"/>
<rect x="163.88" y="90" width="5.04" height="26" fill="#cfd6e0" rx="2"/>
<rect x="163.88" y="396" width="5.04" height="26" fill="#cfd6e0" rx="2"/>
<rect x="90" y="163.88" width="26" height="5.04" fill="#cfd6e0" rx="2"/>
<rect x="396" y="163.88" width="26" height="5.04" fill="#cfd6e0" rx="2"/>
<rect x="175.08" y="90" width="5.04" height="26" fill="#cfd6e0" rx="2"/>
<rect x="175.08" y="396" width="5.04" height="26" fill="#cfd6e0" rx="2"/>
<rect x="90" y="175.08" width="26" height="5.04" fill="#cfd6e0" rx="2"/>
<rect x="396" y="175.08" width="26" height="5.04" fill="#cfd6e0" rx="2"/>
<rect x="186.28" y="90" width="5.04" height="26" fill="#cfd6e0" rx="2"/>
<rect x="186.28" y="396" width="5.04" height="26" fill="#cfd6e0" rx="2"/>
<rect x="90" y="186.28" width="26" height="5.04" fill="#cfd6e0" rx="2"/>
<rect x="396" y="186.28" width="26" height="5.04" fill="#cfd6e0" rx="2"/>
<rect x="197.48" y="90" width="5.04" height="26" fill="#cfd6e0" rx="2"/>
<rect x="197.48" y="396" width="5.04" height="26" fill="#cfd6e0" rx="2"/>
<rect x="90" y="197.48" width="26" height="5.04" fill="#cfd6e0" rx="2"/>
<rect x="396" y="197.48" width="26" height="5.04" fill="#cfd6e0" rx="2"/>
<rect x="208.68" y="90" width="5.04" height="26" fill="#cfd6e0" rx="2"/>
<rect x="208.68" y="396" width="5.04" height="26" fill="#cfd6e0" rx="2"/>
<rect x="90" y="208.68" width="26" height="5.04" fill="#cfd6e0" rx="2"/>
<rect x="396" y="208.68" width="26" height="5.04" fill="#cfd6e0" rx="2"/>
<rect x="219.88" y="90" width="5.04" height="26" fill="#cfd6e0" rx="2"/>
<rect x="219.88" y="396" width="5.04" height="26" fill="#cfd6e0" rx="2"/>
<rect x="90" y="219.88" width="26" height="5.04" fill="#cfd6e0" rx="2"/>
<rect x="396" y="219.88" width="26" height="5.04" fill="#cfd6e0" rx="2"/>
<rect x="231.08" y="90" width="5.04" height="26" fill="#cfd6e0" rx="2"/>
<rect x="231.08" y="396" width="5.04" height="26" fill="#cfd6e0" rx="2"/>
<rect x="90" y="231.08" width="26" height="5.04" fill="#cfd6e0" rx="2"/>
<rect x="396" y="231.08" width="26" height="5.04" fill="#cfd6e0" rx="2"/>
<rect x="242.28" y="90" width="5.04" height="26" fill="#cfd6e0" rx="2"/>
<rect x="242.28" y="396" width="5.04" height="26" fill="#cfd6e0" rx="2"/>
<rect x="90" y="242.28" width="26" height="5.04" fill="#cfd6e0" rx="2"/>
<rect x="396" y="242.28" width="26" height="5.04" fill="#cfd6e0" rx="2"/>
<rect x="253.48" y="90" width="5.04" height="26" fill="#cfd6e0" rx="2"/>
<rect x="253.48" y="396" width="5.04" height="26" fill="#cfd6e0" rx="2"/>
<rect x="90" y="253.48" width="26" height="5.04" fill="#cfd6e0" rx="2"/>
<rect x="396" y="253.48" width="26" height="5.04" fill="#cfd6e0" rx="2"/>
<rect x="264.68" y="90" width="5.04" height="26" fill="#cfd6e0" rx="2"/>
<rect x="264.68" y="396" width="5.04" height="26" fill="#cfd6e0" rx="2"/>
<rect x="90" y="264.68" width="26" height="5.04" fill="#cfd6e0" rx="2"/>
<rect x="396" y="264.68" width="26" height="5.04" fill="#cfd6e0" rx="2"/>
<rect x="275.88" y="90" width="5.04" height="26" fill="#cfd6e0" rx="2"/>
<rect x="275.88" y="396" width="5.04" height="26" fill="#cfd6e0" rx="2"/>
<rect x="90" y="275.88" width="26" height="5.04" fill="#cfd6e0" rx="2"/>
<rect x="396" y="275.88" width="26" height="5.04" fill="#cfd6e0" rx="2"/>
<rect x="287.08" y="90" width="5.04" height="26" fill="#cfd6e0" rx="2"/>
<rect x="287.08" y="396" width="5.04" height="26" fill="#cfd6e0" rx="2"/>
<rect x="90" y="287.08" width="26" height="5.04" fill="#cfd6e0" rx="2"/>
<rect x="396" y="287.08" width="26" height="5.04" fill="#cfd6e0" rx="2"/>
<rect x="298.28" y="90" width="5.04" height="26" fill="#cfd6e0" rx="2"/>
<rect x="298.28" y="396" width="5.04" height="26" fill="#cfd6e0" rx="2"/>
<rect x="90" y="298.28" width="26" height="5.04" fill="#cfd6e0" rx="2"/>
<rect x="396" y="298.28" width="26" height="5.04" fill="#cfd6e0" rx="2"/>
<rect x="309.48" y="90" width="5.04" height="26" fill="#cfd6e0" rx="2"/>
<rect x="309.48" y="396" width="5.04" height="26" fill="#cfd6e0" rx="2"/>
<rect x="90" y="309.48" width="26" height="5.04" fill="#cfd6e0" rx="2"/>
<rect x="396" y="309.48" width="26" height="5.04" fill="#cfd6e0" rx="2"/>
<rect x="320.68" y="90" width="5.04" height="26" fill="#cfd6e0" rx="2"/>
<rect x="320.68" y="396" width="5.04" height="26" fill="#cfd6e0" rx="2"/>
<rect x="90" y="320.68" width="26" height="5.04" fill="#cfd6e0" rx="2"/>
<rect x="396" y="320.68" width="26" height="5.04" fill="#cfd6e0" rx="2"/>
<rect x="331.88" y="90" width="5.04" height="26" fill="#cfd6e0" rx="2"/>
<rect x="331.88" y="396" width="5.04" height="26" fill="#cfd6e0" rx="2"/>
<rect x="90" y="331.88" width="26" height="5.04" fill="#cfd6e0" rx="2"/>
<rect x="396" y="331.88" width="26" height="5.04" fill="#cfd6e0" rx="2"/>
<rect x="343.08" y="90" width="5.04" height="26" fill="#cfd6e0" rx="2"/>
<rect x="343.08" y="396" width="5.04" height="26" fill="#cfd6e0" rx="2"/>
<rect x="90" y="343.08" width="26" height="5.04" fill="#cfd6e0" rx="2"/>
<rect x="396" y="343.08" width="26" height="5.04" fill="#cfd6e0" rx="2"/>
<rect x="354.28" y="90" width="5.04" height="26" fill="#cfd6e0" rx="2"/>
<rect x="354.28" y="396" width="5.04" height="26" fill="#cfd6e0" rx="2"/>
<rect x="90" y="354.28" width="26" height="5.04" fill="#cfd6e0" rx="2"/>
<rect x="396" y="354.28" width="26" height="5.04" fill="#cfd6e0" rx="2"/>
<rect x="365.48" y="90" width="5.04" height="26" fill="#cfd6e0" rx="2"/>
<rect x="365.48" y="396" width="5.04" height="26" fill="#cfd6e0" rx="2"/>
<rect x="90" y="365.48" width="26" height="5.04" fill="#cfd6e0" rx="2"/>
<rect x="396" y="365.48" width="26" height="5.04" fill="#cfd6e0" rx="2"/>
<rect x="376.68" y="90" width="5.04" height="26" fill="#cfd6e0" rx="2"/>
<rect x="376.68" y="396" width="5.04" height="26" fill="#cfd6e0" rx="2"/>
<rect x="90" y="376.68" width="26" height="5.04" fill="#cfd6e0" rx="2"/>
<rect x="396" y="376.68" width="26" height="5.04" fill="#cfd6e0" rx="2"/>
<rect x="387.88" y="90" width="5.04" height="26" fill="#cfd6e0" rx="2"/>
<rect x="387.88" y="396" width="5.04" height="26" fill="#cfd6e0" rx="2"/>
<rect x="90" y="387.88" width="26" height="5.04" fill="#cfd6e0" rx="2"/>
<rect x="396" y="387.88" width="26" height="5.04" fill="#cfd6e0" rx="2"/>
<rect x="116" y="116" width="280" height="280" rx="12" fill="#0e1115"/>
<circle cx="146" cy="146" r="10" fill="#cfd2d8"/>
<text x="256" y="234" font-family="Arial Black, Segoe UI Bold, DejaVu Sans Bold, sans-serif" font-weight="900" font-size="68" fill="white" text-anchor="middle" dominant-baseline="central">SCSP</text>
<text x="256" y="292" font-family="Arial Black, Segoe UI Bold, DejaVu Sans Bold, sans-serif" font-weight="700" font-size="28" fill="#cbd3df" text-anchor="middle" dominant-baseline="central">Saturn</text>
</svg>
