<svg xmlns="http://www.w3.org/2000/svg" viewBox="0 0 512 512">
<circle cx="256" cy="256" r="256" fill="#582ba5"/>
<rect x="106" y="106" width="300" height="300" rx="22" fill="#0e1115"/>
<circle cx="136" cy="136" r="11" fill="#cfd2d8"/>
<circle cx="156.0" cy="156.0" r="5" fill="#1a1f25" fill-opacity="0.55"/>
<circle cx="156.0" cy="206.0" r="5" fill="#1a1f25" fill-opacity="0.55"/>
<circle cx="156.0" cy="256.0" r="5" fill="#1a1f25" fill-opacity="0.55"/>
<circle cx="156.0" cy="306.0" r="5" fill="#1a1f25" fill-opacity="0.55"/>
<circle cx="156.0" cy="356.0" r="5" fill="#1a1f25" fill-opacity="0.55"/>
<circle cx="206.0" cy="156.0" r="5" fill="#1a1f25" fill-opacity="0.55"/>
<circle cx="206.0" cy="206.0" r="5" fill="#1a1f25" fill-opacity="0.55"/>
<circle cx="206.0" cy="256.0" r="5" fill="#1a1f25" fill-opacity="0.55"/>
<circle cx="206.0" cy="306.0" r="5" fill="#1a1f25" fill-opacity="0.55"/>
<circle cx="206.0" cy="356.0" r="5" fill="#1a1f25" fill-opacity="0.55"/>
<circle cx="256.0" cy="156.0" r="5" fill="#1a1f25" fill-opacity="0.55"/>
<circle cx="256.0" cy="206.0" r="5" fill="#1a1f25" fill-opacity="0.55"/>
<circle cx="256.0" cy="256.0" r="5" fill="#1a1f25" fill-opacity="0.55"/>
<circle cx="256.0" cy="306.0" r="5" fill="#1a1f25" fill-opacity="0.55"/>
<circle cx="256.0" cy="356.0" r="5" fill="#1a1f25" fill-opacity="0.55"/>
<circle cx="306.0" cy="156.0" r="5" fill="#1a1f25" fill-opacity="0.55"/>
<circle cx="306.0" cy="206.0" r="5" fill="#1a1f25" fill-opacity="0.55"/>
<circle cx="306.0" cy="256.0" r="5" fill="#1a1f25" fill-opacity="0.55"/>
<circle cx="306.0" cy="306.0" r="5" fill="#1a1f25" fill-opacity="0.55"/>
<circle cx="306.0" cy="356.0" r="5" fill="#1a1f25" fill-opacity="0.55"/>
<circle cx="356.0" cy="156.0" r="5" fill="#1a1f25" fill-opacity="0.55"/>
<circle cx="356.0" cy="206.0" r="5" fill="#1a1f25" fill-opacity="0.55"/>
<circle cx="356.0" cy="256.0" r="5" fill="#1a1f25" fill-opacity="0.55"/>
<circle cx="356.0" cy="306.0" r="5" fill="#1a1f25" fill-opacity="0.55"/>
<circle cx="356.0" cy="356.0" r="5" fill="#1a1f25" fill-opacity="0.55"/>
<text x="256" y="234" font-family="Arial Black, Segoe UI Bold, DejaVu Sans Bold, sans-serif" font-weight="900" font-size="48" fill="white" text-anchor="middle" dominant-baseline="central">AGB-CPU</text>
<text x="256" y="292" font-family="Arial Black, Segoe UI Bold, DejaVu Sans Bold, sans-serif" font-weight="700" font-size="28" fill="#cbd3df" text-anchor="middle" dominant-baseline="central">ARM7TDMI</text>
</svg>
