<svg xmlns="http://www.w3.org/2000/svg" viewBox="0 0 512 512">
<circle cx="256" cy="256" r="256" fill="#dc1e1e"/>
<rect x="125.95" y="95" width="8.10" height="26" fill="#cfd6e0" rx="2"/>
<rect x="125.95" y="391" width="8.10" height="26" fill="#cfd6e0" rx="2"/>
<rect x="95" y="125.95" width="26" height="8.10" fill="#cfd6e0" rx="2"/>
<rect x="391" y="125.95" width="26" height="8.10" fill="#cfd6e0" rx="2"/>
<rect x="143.95" y="95" width="8.10" height="26" fill="#cfd6e0" rx="2"/>
<rect x="143.95" y="391" width="8.10" height="26" fill="#cfd6e0" rx="2"/>
<rect x="95" y="143.95" width="26" height="8.10" fill="#cfd6e0" rx="2"/>
<rect x="391" y="143.95" width="26" height="8.10" fill="#cfd6e0" rx="2"/>
<rect x="161.95" y="95" width="8.10" height="26" fill="#cfd6e0" rx="2"/>
<rect x="161.95" y="391" width="8.10" height="26" fill="#cfd6e0" rx="2"/>
<rect x="95" y="161.95" width="26" height="8.10" fill="#cfd6e0" rx="2"/>
<rect x="391" y="161.95" width="26" height="8.10" fill="#cfd6e0" rx="2"/>
<rect x="179.95" y="95" width="8.10" height="26" fill="#cfd6e0" rx="2"/>
<rect x="179.95" y="391" width="8.10" height="26" fill="#cfd6e0" rx="2"/>
<rect x="95" y="179.95" width="26" height="8.10" fill="#cfd6e0" rx="2"/>
<rect x="391" y="179.95" width="26" height="8.10" fill="#cfd6e0" rx="2"/>
<rect x="197.95" y="95" width="8.10" height="26" fill="#cfd6e0" rx="2"/>
<rect x="197.95" y="391" width="8.10" height="26" fill="#cfd6e0" rx="2"/>
<rect x="95" y="197.95" width="26" height="8.10" fill="#cfd6e0" rx="2"/>
<rect x="391" y="197.95" width="26" height="8.10" fill="#cfd6e0" rx="2"/>
<rect x="215.95" y="95" width="8.10" height="26" fill="#cfd6e0" rx="2"/>
<rect x="215.95" y="391" width="8.10" height="26" fill="#cfd6e0" rx="2"/>
<rect x="95" y="215.95" width="26" height="8.10" fill="#cfd6e0" rx="2"/>
<rect x="391" y="215.95" width="26" height="8.10" fill="#cfd6e0" rx="2"/>
<rect x="233.95" y="95" width="8.10" height="26" fill="#cfd6e0" rx="2"/>
<rect x="233.95" y="391" width="8.10" height="26" fill="#cfd6e0" rx="2"/>
<rect x="95" y="233.95" width="26" height="8.10" fill="#cfd6e0" rx="2"/>
<rect x="391" y="233.95" width="26" height="8.10" fill="#cfd6e0" rx="2"/>
<rect x="251.95" y="95" width="8.10" height="26" fill="#cfd6e0" rx="2"/>
<rect x="251.95" y="391" width="8.10" height="26" fill="#cfd6e0" rx="2"/>
<rect x="95" y="251.95" width="26" height="8.10" fill="#cfd6e0" rx="2"/>
<rect x="391" y="251.95" width="26" height="8.10" fill="#cfd6e0" rx="2"/>
<rect x="269.95" y="95" width="8.10" height="26" fill="#cfd6e0" rx="2"/>
<rect x="269.95" y="391" width="8.10" height="26" fill="#cfd6e0" rx="2"/>
<rect x="95" y="269.95" width="26" height="8.10" fill="#cfd6e0" rx="2"/>
<rect x="391" y="269.95" width="26" height="8.10" fill="#cfd6e0" rx="2"/>
<rect x="287.95" y="95" width="8.10" height="26" fill="#cfd6e0" rx="2"/>
<rect x="287.95" y="391" width="8.10" height="26" fill="#cfd6e0" rx="2"/>
<rect x="95" y="287.95" width="26" height="8.10" fill="#cfd6e0" rx="2"/>
<rect x="391" y="287.95" width="26" height="8.10" fill="#cfd6e0" rx="2"/>
<rect x="305.95" y="95" width="8.10" height="26" fill="#cfd6e0" rx="2"/>
<rect x="305.95" y="391" width="8.10" height="26" fill="#cfd6e0" rx="2"/>
<rect x="95" y="305.95" width="26" height="8.10" fill="#cfd6e0" rx="2"/>
<rect x="391" y="305.95" width="26" height="8.10" fill="#cfd6e0" rx="2"/>
<rect x="323.95" y="95" width="8.10" height="26" fill="#cfd6e0" rx="2"/>
<rect x="323.95" y="391" width="8.10" height="26" fill="#cfd6e0" rx="2"/>
<rect x="95" y="323.95" width="26" height="8.10" fill="#cfd6e0" rx="2"/>
<rect x="391" y="323.95" width="26" height="8.10" fill="#cfd6e0" rx="2"/>
<rect x="341.95" y="95" width="8.10" height="26" fill="#cfd6e0" rx="2"/>
<rect x="341.95" y="391" width="8.10" height="26" fill="#cfd6e0" rx="2"/>
<rect x="95" y="341.95" width="26" height="8.10" fill="#cfd6e0" rx="2"/>
<rect x="391" y="341.95" width="26" height="8.10" fill="#cfd6e0" rx="2"/>
<rect x="359.95" y="95" width="8.10" height="26" fill="#cfd6e0" rx="2"/>
<rect x="359.95" y="391" width="8.10" height="26" fill="#cfd6e0" rx="2"/>
<rect x="95" y="359.95" width="26" height="8.10" fill="#cfd6e0" rx="2"/>
<rect x="391" y="359.95" width="26" height="8.10" fill="#cfd6e0" rx="2"/>
<rect x="377.95" y="95" width="8.10" height="26" fill="#cfd6e0" rx="2"/>
<rect x="377.95" y="391" width="8.10" height="26" fill="#cfd6e0" rx="2"/>
<rect x="95" y="377.95" width="26" height="8.10" fill="#cfd6e0" rx="2"/>
<rect x="391" y="377.95" width="26" height="8.10" fill="#cfd6e0" rx="2"/>
<rect x="121" y="121" width="270" height="270" rx="12" fill="#0e1115"/>
<circle cx="151" cy="151" r="10" fill="#cfd2d8"/>
<text x="256" y="234" font-family="Arial Black, Segoe UI Bold, DejaVu Sans Bold, sans-serif" font-weight="900" font-size="80" fill="white" text-anchor="middle" dominant-baseline="central">VSU</text>
<text x="256" y="292" font-family="Arial Black, Segoe UI Bold, DejaVu Sans Bold, sans-serif" font-weight="700" font-size="28" fill="#cbd3df" text-anchor="middle" dominant-baseline="central">Virtual Boy</text>
</svg>
