<svg xmlns="http://www.w3.org/2000/svg" viewBox="0 0 512 512">
<circle cx="256" cy="256" r="256" fill="#2896af"/>
<rect x="123.97" y="95" width="4.86" height="26" fill="#cfd6e0" rx="2"/>
<rect x="123.97" y="391" width="4.86" height="26" fill="#cfd6e0" rx="2"/>
<rect x="95" y="123.97" width="26" height="4.86" fill="#cfd6e0" rx="2"/>
<rect x="391" y="123.97" width="26" height="4.86" fill="#cfd6e0" rx="2"/>
<rect x="134.77" y="95" width="4.86" height="26" fill="#cfd6e0" rx="2"/>
<rect x="134.77" y="391" width="4.86" height="26" fill="#cfd6e0" rx="2"/>
<rect x="95" y="134.77" width="26" height="4.86" fill="#cfd6e0" rx="2"/>
<rect x="391" y="134.77" width="26" height="4.86" fill="#cfd6e0" rx="2"/>
<rect x="145.57" y="95" width="4.86" height="26" fill="#cfd6e0" rx="2"/>
<rect x="145.57" y="391" width="4.86" height="26" fill="#cfd6e0" rx="2"/>
<rect x="95" y="145.57" width="26" height="4.86" fill="#cfd6e0" rx="2"/>
<rect x="391" y="145.57" width="26" height="4.86" fill="#cfd6e0" rx="2"/>
<rect x="156.37" y="95" width="4.86" height="26" fill="#cfd6e0" rx="2"/>
<rect x="156.37" y="391" width="4.86" height="26" fill="#cfd6e0" rx="2"/>
<rect x="95" y="156.37" width="26" height="4.86" fill="#cfd6e0" rx="2"/>
<rect x="391" y="156.37" width="26" height="4.86" fill="#cfd6e0" rx="2"/>
<rect x="167.17" y="95" width="4.86" height="26" fill="#cfd6e0" rx="2"/>
<rect x="167.17" y="391" width="4.86" height="26" fill="#cfd6e0" rx="2"/>
<rect x="95" y="167.17" width="26" height="4.86" fill="#cfd6e0" rx="2"/>
<rect x="391" y="167.17" width="26" height="4.86" fill="#cfd6e0" rx="2"/>
<rect x="177.97" y="95" width="4.86" height="26" fill="#cfd6e0" rx="2"/>
<rect x="177.97" y="391" width="4.86" height="26" fill="#cfd6e0" rx="2"/>
<rect x="95" y="177.97" width="26" height="4.86" fill="#cfd6e0" rx="2"/>
<rect x="391" y="177.97" width="26" height="4.86" fill="#cfd6e0" rx="2"/>
<rect x="188.77" y="95" width="4.86" height="26" fill="#cfd6e0" rx="2"/>
<rect x="188.77" y="391" width="4.86" height="26" fill="#cfd6e0" rx="2"/>
<rect x="95" y="188.77" width="26" height="4.86" fill="#cfd6e0" rx="2"/>
<rect x="391" y="188.77" width="26" height="4.86" fill="#cfd6e0" rx="2"/>
<rect x="199.57" y="95" width="4.86" height="26" fill="#cfd6e0" rx="2"/>
<rect x="199.57" y="391" width="4.86" height="26" fill="#cfd6e0" rx="2"/>
<rect x="95" y="199.57" width="26" height="4.86" fill="#cfd6e0" rx="2"/>
<rect x="391" y="199.57" width="26" height="4.86" fill="#cfd6e0" rx="2"/>
<rect x="210.37" y="95" width="4.86" height="26" fill="#cfd6e0" rx="2"/>
<rect x="210.37" y="391" width="4.86" height="26" fill="#cfd6e0" rx="2"/>
<rect x="95" y="210.37" width="26" height="4.86" fill="#cfd6e0" rx="2"/>
<rect x="391" y="210.37" width="26" height="4.86" fill="#cfd6e0" rx="2"/>
<rect x="221.17" y="95" width="4.86" height="26" fill="#cfd6e0" rx="2"/>
<rect x="221.17" y="391" width="4.86" height="26" fill="#cfd6e0" rx="2"/>
<rect x="95" y="221.17" width="26" height="4.86" fill="#cfd6e0" rx="2"/>
<rect x="391" y="221.17" width="26" height="4.86" fill="#cfd6e0" rx="2"/>
<rect x="231.97" y="95" width="4.86" height="26" fill="#cfd6e0" rx="2"/>
<rect x="231.97" y="391" width="4.86" height="26" fill="#cfd6e0" rx="2"/>
<rect x="95" y="231.97" width="26" height="4.86" fill="#cfd6e0" rx="2"/>
<rect x="391" y="231.97" width="26" height="4.86" fill="#cfd6e0" rx="2"/>
<rect x="242.77" y="95" width="4.86" height="26" fill="#cfd6e0" rx="2"/>
<rect x="242.77" y="391" width="4.86" height="26" fill="#cfd6e0" rx="2"/>
<rect x="95" y="242.77" width="26" height="4.86" fill="#cfd6e0" rx="2"/>
<rect x="391" y="242.77" width="26" height="4.86" fill="#cfd6e0" rx="2"/>
<rect x="253.57" y="95" width="4.86" height="26" fill="#cfd6e0" rx="2"/>
<rect x="253.57" y="391" width="4.86" height="26" fill="#cfd6e0" rx="2"/>
<rect x="95" y="253.57" width="26" height="4.86" fill="#cfd6e0" rx="2"/>
<rect x="391" y="253.57" width="26" height="4.86" fill="#cfd6e0" rx="2"/>
<rect x="264.37" y="95" width="4.86" height="26" fill="#cfd6e0" rx="2"/>
<rect x="264.37" y="391" width="4.86" height="26" fill="#cfd6e0" rx="2"/>
<rect x="95" y="264.37" width="26" height="4.86" fill="#cfd6e0" rx="2"/>
<rect x="391" y="264.37" width="26" height="4.86" fill="#cfd6e0" rx="2"/>
<rect x="275.17" y="95" width="4.86" height="26" fill="#cfd6e0" rx="2"/>
<rect x="275.17" y="391" width="4.86" height="26" fill="#cfd6e0" rx="2"/>
<rect x="95" y="275.17" width="26" height="4.86" fill="#cfd6e0" rx="2"/>
<rect x="391" y="275.17" width="26" height="4.86" fill="#cfd6e0" rx="2"/>
<rect x="285.97" y="95" width="4.86" height="26" fill="#cfd6e0" rx="2"/>
<rect x="285.97" y="391" width="4.86" height="26" fill="#cfd6e0" rx="2"/>
<rect x="95" y="285.97" width="26" height="4.86" fill="#cfd6e0" rx="2"/>
<rect x="391" y="285.97" width="26" height="4.86" fill="#cfd6e0" rx="2"/>
<rect x="296.77" y="95" width="4.86" height="26" fill="#cfd6e0" rx="2"/>
<rect x="296.77" y="391" width="4.86" height="26" fill="#cfd6e0" rx="2"/>
<rect x="95" y="296.77" width="26" height="4.86" fill="#cfd6e0" rx="2"/>
<rect x="391" y="296.77" width="26" height="4.86" fill="#cfd6e0" rx="2"/>
<rect x="307.57" y="95" width="4.86" height="26" fill="#cfd6e0" rx="2"/>
<rect x="307.57" y="391" width="4.86" height="26" fill="#cfd6e0" rx="2"/>
<rect x="95" y="307.57" width="26" height="4.86" fill="#cfd6e0" rx="2"/>
<rect x="391" y="307.57" width="26" height="4.86" fill="#cfd6e0" rx="2"/>
<rect x="318.37" y="95" width="4.86" height="26" fill="#cfd6e0" rx="2"/>
<rect x="318.37" y="391" width="4.86" height="26" fill="#cfd6e0" rx="2"/>
<rect x="95" y="318.37" width="26" height="4.86" fill="#cfd6e0" rx="2"/>
<rect x="391" y="318.37" width="26" height="4.86" fill="#cfd6e0" rx="2"/>
<rect x="329.17" y="95" width="4.86" height="26" fill="#cfd6e0" rx="2"/>
<rect x="329.17" y="391" width="4.86" height="26" fill="#cfd6e0" rx="2"/>
<rect x="95" y="329.17" width="26" height="4.86" fill="#cfd6e0" rx="2"/>
<rect x="391" y="329.17" width="26" height="4.86" fill="#cfd6e0" rx="2"/>
<rect x="339.97" y="95" width="4.86" height="26" fill="#cfd6e0" rx="2"/>
<rect x="339.97" y="391" width="4.86" height="26" fill="#cfd6e0" rx="2"/>
<rect x="95" y="339.97" width="26" height="4.86" fill="#cfd6e0" rx="2"/>
<rect x="391" y="339.97" width="26" height="4.86" fill="#cfd6e0" rx="2"/>
<rect x="350.77" y="95" width="4.86" height="26" fill="#cfd6e0" rx="2"/>
<rect x="350.77" y="391" width="4.86" height="26" fill="#cfd6e0" rx="2"/>
<rect x="95" y="350.77" width="26" height="4.86" fill="#cfd6e0" rx="2"/>
<rect x="391" y="350.77" width="26" height="4.86" fill="#cfd6e0" rx="2"/>
<rect x="361.57" y="95" width="4.86" height="26" fill="#cfd6e0" rx="2"/>
<rect x="361.57" y="391" width="4.86" height="26" fill="#cfd6e0" rx="2"/>
<rect x="95" y="361.57" width="26" height="4.86" fill="#cfd6e0" rx="2"/>
<rect x="391" y="361.57" width="26" height="4.86" fill="#cfd6e0" rx="2"/>
<rect x="372.37" y="95" width="4.86" height="26" fill="#cfd6e0" rx="2"/>
<rect x="372.37" y="391" width="4.86" height="26" fill="#cfd6e0" rx="2"/>
<rect x="95" y="372.37" width="26" height="4.86" fill="#cfd6e0" rx="2"/>
<rect x="391" y="372.37" width="26" height="4.86" fill="#cfd6e0" rx="2"/>
<rect x="383.17" y="95" width="4.86" height="26" fill="#cfd6e0" rx="2"/>
<rect x="383.17" y="391" width="4.86" height="26" fill="#cfd6e0" rx="2"/>
<rect x="95" y="383.17" width="26" height="4.86" fill="#cfd6e0" rx="2"/>
<rect x="391" y="383.17" width="26" height="4.86" fill="#cfd6e0" rx="2"/>
<rect x="121" y="121" width="270" height="270" rx="12" fill="#0e1115"/>
<circle cx="151" cy="151" r="10" fill="#cfd2d8"/>
<text x="256" y="234" font-family="Arial Black, Segoe UI Bold, DejaVu Sans Bold, sans-serif" font-weight="900" font-size="58" fill="white" text-anchor="middle" dominant-baseline="central">WS-SoC</text>
<text x="256" y="292" font-family="Arial Black, Segoe UI Bold, DejaVu Sans Bold, sans-serif" font-weight="700" font-size="28" fill="#cbd3df" text-anchor="middle" dominant-baseline="central">WonderSwan</text>
</svg>
