<svg xmlns="http://www.w3.org/2000/svg" viewBox="0 0 512 512">
<circle cx="256" cy="256" r="256" fill="#8bac0f"/>
<rect x="124.71" y="95" width="6.08" height="26" fill="#cfd6e0" rx="2"/>
<rect x="124.71" y="391" width="6.08" height="26" fill="#cfd6e0" rx="2"/>
<rect x="95" y="124.71" width="26" height="6.08" fill="#cfd6e0" rx="2"/>
<rect x="391" y="124.71" width="26" height="6.08" fill="#cfd6e0" rx="2"/>
<rect x="138.21" y="95" width="6.08" height="26" fill="#cfd6e0" rx="2"/>
<rect x="138.21" y="391" width="6.08" height="26" fill="#cfd6e0" rx="2"/>
<rect x="95" y="138.21" width="26" height="6.08" fill="#cfd6e0" rx="2"/>
<rect x="391" y="138.21" width="26" height="6.08" fill="#cfd6e0" rx="2"/>
<rect x="151.71" y="95" width="6.08" height="26" fill="#cfd6e0" rx="2"/>
<rect x="151.71" y="391" width="6.08" height="26" fill="#cfd6e0" rx="2"/>
<rect x="95" y="151.71" width="26" height="6.08" fill="#cfd6e0" rx="2"/>
<rect x="391" y="151.71" width="26" height="6.08" fill="#cfd6e0" rx="2"/>
<rect x="165.21" y="95" width="6.08" height="26" fill="#cfd6e0" rx="2"/>
<rect x="165.21" y="391" width="6.08" height="26" fill="#cfd6e0" rx="2"/>
<rect x="95" y="165.21" width="26" height="6.08" fill="#cfd6e0" rx="2"/>
<rect x="391" y="165.21" width="26" height="6.08" fill="#cfd6e0" rx="2"/>
<rect x="178.71" y="95" width="6.08" height="26" fill="#cfd6e0" rx="2"/>
<rect x="178.71" y="391" width="6.08" height="26" fill="#cfd6e0" rx="2"/>
<rect x="95" y="178.71" width="26" height="6.08" fill="#cfd6e0" rx="2"/>
<rect x="391" y="178.71" width="26" height="6.08" fill="#cfd6e0" rx="2"/>
<rect x="192.21" y="95" width="6.08" height="26" fill="#cfd6e0" rx="2"/>
<rect x="192.21" y="391" width="6.08" height="26" fill="#cfd6e0" rx="2"/>
<rect x="95" y="192.21" width="26" height="6.08" fill="#cfd6e0" rx="2"/>
<rect x="391" y="192.21" width="26" height="6.08" fill="#cfd6e0" rx="2"/>
<rect x="205.71" y="95" width="6.08" height="26" fill="#cfd6e0" rx="2"/>
<rect x="205.71" y="391" width="6.08" height="26" fill="#cfd6e0" rx="2"/>
<rect x="95" y="205.71" width="26" height="6.08" fill="#cfd6e0" rx="2"/>
<rect x="391" y="205.71" width="26" height="6.08" fill="#cfd6e0" rx="2"/>
<rect x="219.21" y="95" width="6.08" height="26" fill="#cfd6e0" rx="2"/>
<rect x="219.21" y="391" width="6.08" height="26" fill="#cfd6e0" rx="2"/>
<rect x="95" y="219.21" width="26" height="6.08" fill="#cfd6e0" rx="2"/>
<rect x="391" y="219.21" width="26" height="6.08" fill="#cfd6e0" rx="2"/>
<rect x="232.71" y="95" width="6.08" height="26" fill="#cfd6e0" rx="2"/>
<rect x="232.71" y="391" width="6.08" height="26" fill="#cfd6e0" rx="2"/>
<rect x="95" y="232.71" width="26" height="6.08" fill="#cfd6e0" rx="2"/>
<rect x="391" y="232.71" width="26" height="6.08" fill="#cfd6e0" rx="2"/>
<rect x="246.21" y="95" width="6.08" height="26" fill="#cfd6e0" rx="2"/>
<rect x="246.21" y="391" width="6.08" height="26" fill="#cfd6e0" rx="2"/>
<rect x="95" y="246.21" width="26" height="6.08" fill="#cfd6e0" rx="2"/>
<rect x="391" y="246.21" width="26" height="6.08" fill="#cfd6e0" rx="2"/>
<rect x="259.71" y="95" width="6.08" height="26" fill="#cfd6e0" rx="2"/>
<rect x="259.71" y="391" width="6.08" height="26" fill="#cfd6e0" rx="2"/>
<rect x="95" y="259.71" width="26" height="6.08" fill="#cfd6e0" rx="2"/>
<rect x="391" y="259.71" width="26" height="6.08" fill="#cfd6e0" rx="2"/>
<rect x="273.21" y="95" width="6.08" height="26" fill="#cfd6e0" rx="2"/>
<rect x="273.21" y="391" width="6.08" height="26" fill="#cfd6e0" rx="2"/>
<rect x="95" y="273.21" width="26" height="6.08" fill="#cfd6e0" rx="2"/>
<rect x="391" y="273.21" width="26" height="6.08" fill="#cfd6e0" rx="2"/>
<rect x="286.71" y="95" width="6.08" height="26" fill="#cfd6e0" rx="2"/>
<rect x="286.71" y="391" width="6.08" height="26" fill="#cfd6e0" rx="2"/>
<rect x="95" y="286.71" width="26" height="6.08" fill="#cfd6e0" rx="2"/>
<rect x="391" y="286.71" width="26" height="6.08" fill="#cfd6e0" rx="2"/>
<rect x="300.21" y="95" width="6.08" height="26" fill="#cfd6e0" rx="2"/>
<rect x="300.21" y="391" width="6.08" height="26" fill="#cfd6e0" rx="2"/>
<rect x="95" y="300.21" width="26" height="6.08" fill="#cfd6e0" rx="2"/>
<rect x="391" y="300.21" width="26" height="6.08" fill="#cfd6e0" rx="2"/>
<rect x="313.71" y="95" width="6.08" height="26" fill="#cfd6e0" rx="2"/>
<rect x="313.71" y="391" width="6.08" height="26" fill="#cfd6e0" rx="2"/>
<rect x="95" y="313.71" width="26" height="6.08" fill="#cfd6e0" rx="2"/>
<rect x="391" y="313.71" width="26" height="6.08" fill="#cfd6e0" rx="2"/>
<rect x="327.21" y="95" width="6.08" height="26" fill="#cfd6e0" rx="2"/>
<rect x="327.21" y="391" width="6.08" height="26" fill="#cfd6e0" rx="2"/>
<rect x="95" y="327.21" width="26" height="6.08" fill="#cfd6e0" rx="2"/>
<rect x="391" y="327.21" width="26" height="6.08" fill="#cfd6e0" rx="2"/>
<rect x="340.71" y="95" width="6.08" height="26" fill="#cfd6e0" rx="2"/>
<rect x="340.71" y="391" width="6.08" height="26" fill="#cfd6e0" rx="2"/>
<rect x="95" y="340.71" width="26" height="6.08" fill="#cfd6e0" rx="2"/>
<rect x="391" y="340.71" width="26" height="6.08" fill="#cfd6e0" rx="2"/>
<rect x="354.21" y="95" width="6.08" height="26" fill="#cfd6e0" rx="2"/>
<rect x="354.21" y="391" width="6.08" height="26" fill="#cfd6e0" rx="2"/>
<rect x="95" y="354.21" width="26" height="6.08" fill="#cfd6e0" rx="2"/>
<rect x="391" y="354.21" width="26" height="6.08" fill="#cfd6e0" rx="2"/>
<rect x="367.71" y="95" width="6.08" height="26" fill="#cfd6e0" rx="2"/>
<rect x="367.71" y="391" width="6.08" height="26" fill="#cfd6e0" rx="2"/>
<rect x="95" y="367.71" width="26" height="6.08" fill="#cfd6e0" rx="2"/>
<rect x="391" y="367.71" width="26" height="6.08" fill="#cfd6e0" rx="2"/>
<rect x="381.21" y="95" width="6.08" height="26" fill="#cfd6e0" rx="2"/>
<rect x="381.21" y="391" width="6.08" height="26" fill="#cfd6e0" rx="2"/>
<rect x="95" y="381.21" width="26" height="6.08" fill="#cfd6e0" rx="2"/>
<rect x="391" y="381.21" width="26" height="6.08" fill="#cfd6e0" rx="2"/>
<rect x="121" y="121" width="270" height="270" rx="12" fill="#0e1115"/>
<circle cx="151" cy="151" r="10" fill="#cfd2d8"/>
<text x="256" y="234" font-family="Arial Black, Segoe UI Bold, DejaVu Sans Bold, sans-serif" font-weight="900" font-size="46" fill="white" text-anchor="middle" dominant-baseline="central">DMG-CPU</text>
<text x="256" y="292" font-family="Arial Black, Segoe UI Bold, DejaVu Sans Bold, sans-serif" font-weight="700" font-size="28" fill="#cbd3df" text-anchor="middle" dominant-baseline="central">LR35902</text>
</svg>
