<svg xmlns="http://www.w3.org/2000/svg" viewBox="0 0 512 512">
<circle cx="256" cy="256" r="256" fill="#c8202a"/>
<rect x="105.00" y="128" width="22.00" height="38" fill="#cfd6e0" rx="3"/>
<rect x="105.00" y="346" width="22.00" height="38" fill="#cfd6e0" rx="3"/>
<rect x="145.00" y="128" width="22.00" height="38" fill="#cfd6e0" rx="3"/>
<rect x="145.00" y="346" width="22.00" height="38" fill="#cfd6e0" rx="3"/>
<rect x="185.00" y="128" width="22.00" height="38" fill="#cfd6e0" rx="3"/>
<rect x="185.00" y="346" width="22.00" height="38" fill="#cfd6e0" rx="3"/>
<rect x="225.00" y="128" width="22.00" height="38" fill="#cfd6e0" rx="3"/>
<rect x="225.00" y="346" width="22.00" height="38" fill="#cfd6e0" rx="3"/>
<rect x="265.00" y="128" width="22.00" height="38" fill="#cfd6e0" rx="3"/>
<rect x="265.00" y="346" width="22.00" height="38" fill="#cfd6e0" rx="3"/>
<rect x="305.00" y="128" width="22.00" height="38" fill="#cfd6e0" rx="3"/>
<rect x="305.00" y="346" width="22.00" height="38" fill="#cfd6e0" rx="3"/>
<rect x="345.00" y="128" width="22.00" height="38" fill="#cfd6e0" rx="3"/>
<rect x="345.00" y="346" width="22.00" height="38" fill="#cfd6e0" rx="3"/>
<rect x="385.00" y="128" width="22.00" height="38" fill="#cfd6e0" rx="3"/>
<rect x="385.00" y="346" width="22.00" height="38" fill="#cfd6e0" rx="3"/>
<rect x="96" y="166" width="320" height="180" rx="16" fill="#0e1115"/>
<circle cx="124" cy="194" r="9" fill="#cfd2d8"/>
<rect x="110" y="180" width="292" height="3" fill="#000" fill-opacity="0.45"/>
<text x="256" y="266" font-family="Arial Black, Segoe UI Bold, DejaVu Sans Bold, sans-serif" font-weight="900" font-size="48" fill="white" text-anchor="middle" dominant-baseline="central">SN76489</text>
</svg>
