<svg xmlns="http://www.w3.org/2000/svg" viewBox="0 0 512 512">
<circle cx="256" cy="256" r="256" fill="#4b4b55"/>
<rect x="81.79" y="123" width="14.14" height="38" fill="#cfd6e0" rx="3"/>
<rect x="81.79" y="351" width="14.14" height="38" fill="#cfd6e0" rx="3"/>
<rect x="107.50" y="123" width="14.14" height="38" fill="#cfd6e0" rx="3"/>
<rect x="107.50" y="351" width="14.14" height="38" fill="#cfd6e0" rx="3"/>
<rect x="133.21" y="123" width="14.14" height="38" fill="#cfd6e0" rx="3"/>
<rect x="133.21" y="351" width="14.14" height="38" fill="#cfd6e0" rx="3"/>
<rect x="158.93" y="123" width="14.14" height="38" fill="#cfd6e0" rx="3"/>
<rect x="158.93" y="351" width="14.14" height="38" fill="#cfd6e0" rx="3"/>
<rect x="184.64" y="123" width="14.14" height="38" fill="#cfd6e0" rx="3"/>
<rect x="184.64" y="351" width="14.14" height="38" fill="#cfd6e0" rx="3"/>
<rect x="210.36" y="123" width="14.14" height="38" fill="#cfd6e0" rx="3"/>
<rect x="210.36" y="351" width="14.14" height="38" fill="#cfd6e0" rx="3"/>
<rect x="236.07" y="123" width="14.14" height="38" fill="#cfd6e0" rx="3"/>
<rect x="236.07" y="351" width="14.14" height="38" fill="#cfd6e0" rx="3"/>
<rect x="261.79" y="123" width="14.14" height="38" fill="#cfd6e0" rx="3"/>
<rect x="261.79" y="351" width="14.14" height="38" fill="#cfd6e0" rx="3"/>
<rect x="287.50" y="123" width="14.14" height="38" fill="#cfd6e0" rx="3"/>
<rect x="287.50" y="351" width="14.14" height="38" fill="#cfd6e0" rx="3"/>
<rect x="313.21" y="123" width="14.14" height="38" fill="#cfd6e0" rx="3"/>
<rect x="313.21" y="351" width="14.14" height="38" fill="#cfd6e0" rx="3"/>
<rect x="338.93" y="123" width="14.14" height="38" fill="#cfd6e0" rx="3"/>
<rect x="338.93" y="351" width="14.14" height="38" fill="#cfd6e0" rx="3"/>
<rect x="364.64" y="123" width="14.14" height="38" fill="#cfd6e0" rx="3"/>
<rect x="364.64" y="351" width="14.14" height="38" fill="#cfd6e0" rx="3"/>
<rect x="390.36" y="123" width="14.14" height="38" fill="#cfd6e0" rx="3"/>
<rect x="390.36" y="351" width="14.14" height="38" fill="#cfd6e0" rx="3"/>
<rect x="416.07" y="123" width="14.14" height="38" fill="#cfd6e0" rx="3"/>
<rect x="416.07" y="351" width="14.14" height="38" fill="#cfd6e0" rx="3"/>
<rect x="76" y="161" width="360" height="190" rx="16" fill="#0e1115"/>
<circle cx="104" cy="189" r="9" fill="#cfd2d8"/>
<rect x="90" y="175" width="332" height="3" fill="#000" fill-opacity="0.45"/>
<text x="256" y="266" font-family="Arial Black, Segoe UI Bold, DejaVu Sans Bold, sans-serif" font-weight="900" font-size="140" fill="white" text-anchor="middle" dominant-baseline="central">?</text>
</svg>
